<svg width="26" height="26" viewBox="0 0 26 26" fill="none" xmlns="http://www.w3.org/2000/svg">
<path d="M4.40625 3.625V15.3437C4.40625 16.6382 5.45558 17.6875 6.75 17.6875H9.09375M4.40625 3.625H2.84375M4.40625 3.625H21.5937M21.5937 3.625H23.1562M21.5937 3.625V15.3437C21.5937 16.6382 20.5444 17.6875 19.25 17.6875H16.9062M9.09375 17.6875H16.9062M9.09375 17.6875L8.05208 20.8125M16.9062 17.6875L17.9479 20.8125M17.9479 20.8125L18.4687 22.375M17.9479 20.8125H8.05208M8.05208 20.8125L7.53125 22.375M9.875 12.2187V13.7812M13 9.875V13.7812M16.125 7.53125V13.7812" stroke="#0A3586" stroke-width="1.5" stroke-linecap="round" stroke-linejoin="round"/>
</svg>
