<svg width="24" height="24" viewBox="0 0 24 24" fill="none" xmlns="http://www.w3.org/2000/svg">
<path d="M20.7329 15.2132C20.4741 15.2132 20.2642 15.0034 20.2642 14.7445V13.3361C20.2642 13.0772 20.4741 12.8673 20.7329 12.8673C20.9918 12.8673 21.2017 13.0772 21.2017 13.3361V14.7445C21.2017 15.0034 20.9918 15.2132 20.7329 15.2132Z" fill="white"/>
<path d="M23.5312 10.4291H20.6051V8.62573C20.6051 8.36684 20.3952 8.15698 20.1364 8.15698H14.6073V6.81706H18.8156C18.9551 6.81706 19.0873 6.755 19.1763 6.6477C19.2653 6.54041 19.302 6.39908 19.2764 6.26202L18.3822 1.48667C18.3406 1.26495 18.147 1.10422 17.9214 1.10422H10.3557C10.1301 1.10422 9.93652 1.26495 9.89498 1.48667L9.00075 6.26206C8.97506 6.39912 9.01177 6.54045 9.10083 6.64775C9.18989 6.75505 9.32208 6.81711 9.46148 6.81711H13.6698V8.15703H8.14073C7.88189 8.15703 7.67198 8.36689 7.67198 8.62578V10.4292H5.61352L5.21419 1.55061C5.20294 1.30016 4.99655 1.10291 4.74591 1.10291H1.4055C1.15477 1.10291 0.948469 1.30016 0.937219 1.55061L0.000468966 22.4074C-0.00524978 22.5353 0.0415315 22.6599 0.129985 22.7524C0.218391 22.8448 0.340781 22.8972 0.468797 22.8972H5.68402H23.5312C23.7901 22.8972 24 22.6873 24 22.4284V10.8979C24 10.639 23.7901 10.4291 23.5312 10.4291ZM14.6073 2.04172H17.5323L17.8038 3.49189H14.6073V2.04172ZM14.6073 4.42939H17.9794L18.251 5.87961H14.6074V4.42939H14.6073ZM10.7448 2.04172H13.6698V3.49189H10.4733L10.7448 2.04172ZM10.0262 5.87961L10.2977 4.42939H13.6698V5.87961H10.0262ZM8.60948 9.09453H19.6676V10.4292H8.60948V9.09453ZM23.0625 11.3666V19.3116H20.7394V17.8776C20.7394 17.6188 20.5295 17.4089 20.2706 17.4089H14.9996C14.7407 17.4089 14.5308 17.6188 14.5308 17.8776V19.3116H6.01303L5.65566 11.3667H23.0625V11.3666ZM1.85363 2.04036H4.29773L4.39561 4.21601H1.75594L1.85363 2.04036ZM0.959016 21.9597L1.7138 5.15356H4.43775L5.09128 19.683C5.08463 19.7144 5.08102 19.747 5.08102 19.7803C5.08102 19.8286 5.08833 19.8751 5.10188 19.9189L5.19366 21.9597H0.959016ZM6.13214 21.9597L6.05522 20.2491H14.5309V21.9597H6.13214ZM17.1657 21.9597H15.4683V18.3464H17.1657V21.9597ZM19.8019 21.9597H18.1032V18.3464H19.8019V21.9597ZM20.7394 21.9597V20.2491H23.0625V21.9597H20.7394Z" fill="white"/>
<path d="M7.61328 15.2132C7.87212 15.2132 8.08203 15.0034 8.08203 14.7445V13.3361C8.08203 13.0772 7.87212 12.8673 7.61328 12.8673C7.35444 12.8673 7.14453 13.0772 7.14453 13.3361V14.7445C7.14453 15.0034 7.35444 15.2132 7.61328 15.2132Z" fill="white"/>
<path d="M10.8926 15.2132C11.1514 15.2132 11.3613 15.0034 11.3613 14.7445V13.3361C11.3613 13.0772 11.1514 12.8673 10.8926 12.8673C10.6337 12.8673 10.4238 13.0772 10.4238 13.3361V14.7445C10.4238 15.0034 10.6337 15.2132 10.8926 15.2132Z" fill="white"/>
<path d="M14.1731 15.2132C14.4319 15.2132 14.6418 15.0034 14.6418 14.7445V13.3361C14.6418 13.0772 14.4319 12.8673 14.1731 12.8673C13.9143 12.8673 13.7043 13.0772 13.7043 13.3361V14.7445C13.7043 15.0034 13.9142 15.2132 14.1731 15.2132Z" fill="white"/>
<path d="M17.4524 15.2132C17.7112 15.2132 17.9211 15.0034 17.9211 14.7445V13.3361C17.9211 13.0772 17.7112 12.8673 17.4524 12.8673C17.1935 12.8673 16.9836 13.0772 16.9836 13.3361V14.7445C16.9836 15.0034 17.1935 15.2132 17.4524 15.2132Z" fill="white"/>
</svg>
