<svg width="24" height="24" viewBox="0 0 24 24" fill="none" xmlns="http://www.w3.org/2000/svg">
<path d="M16.6232 5.93872C14.9028 5.93872 13.2854 6.60865 12.0689 7.82512L12 7.89406L11.9311 7.82512C10.7146 6.60856 9.09708 5.93867 7.37666 5.93872H0V14.4093H1.26367C1.57793 15.3569 2.11031 16.2212 2.82268 16.9335L8.96169 23.0725C10.0154 24.1263 11.864 23.8464 12.4684 22.4126C13.5691 23.0342 15.0018 22.6037 15.5097 21.3988C16.6104 22.0205 18.0432 21.5899 18.5511 20.385C19.3568 20.8401 20.3998 20.7471 21.0898 20.094C21.9654 19.265 21.9859 17.88 21.1325 17.0265L21.1085 17.0024C21.1646 16.9321 22.1973 16.035 22.7364 14.4093H24V5.93872C23.4806 5.93872 16.6153 5.93872 16.6232 5.93872ZM20.1192 19.0687C19.836 19.3367 19.3716 19.3207 19.0839 19.033L18.0912 18.0403L14.3059 14.2551L13.3077 15.2534L17.0929 19.0385C17.3804 19.326 17.3791 19.7974 17.0779 20.0824C16.7947 20.3505 16.3303 20.3344 16.0425 20.0467C15.7533 19.7575 12.6613 16.6655 12.2784 16.2826L11.2801 17.2809C11.7943 17.795 13.5362 19.537 14.0531 20.0538C14.3393 20.3416 14.3372 20.8117 14.0366 21.0962C13.7534 21.3643 13.2889 21.3483 13.0013 21.0605L12.0086 20.0678L10.2509 18.3101L9.25261 19.3084L11.0103 21.0661C11.2979 21.3536 11.2964 21.8249 10.9953 22.11C10.7121 22.378 10.2477 22.362 9.95995 22.0743L3.82094 15.9353C2.55473 14.6691 2.45167 13.2705 2.3552 12.9975H1.41176V7.35049H7.37666C8.72 7.35044 9.98292 7.8735 10.9328 8.82338L11.0017 8.89232L8.98278 10.9113C8.14664 11.7474 8.14654 13.1008 8.98278 13.9371C9.81699 14.7713 11.1744 14.7713 12.0086 13.9371L14.0275 11.9181L20.1342 18.0248C20.4225 18.3131 20.4197 18.7841 20.1192 19.0687ZM22.5882 12.9975H21.6448L21.5164 13.5411C21.3025 14.4464 20.84 15.2743 20.1791 15.9353L20.1265 15.9879L14.0439 9.90526L11.0103 12.9388C10.7265 13.2225 10.2648 13.2225 9.98104 12.9388C9.69671 12.6544 9.69652 12.1941 9.98104 11.9095L13.0672 8.82338C14.017 7.8735 15.28 7.35044 16.6233 7.35049H22.5882V12.9975Z" fill="white"/>
<path d="M11.2942 0.291626H12.706V3.11516H11.2942V0.291626Z" fill="white"/>
<path d="M7.13965 1.80469L8.39047 1.14963L9.61646 3.49063L8.36563 4.14569L7.13965 1.80469Z" fill="white"/>
<path d="M14.3894 3.49451L15.6154 1.15351L16.8662 1.80857L15.6402 4.14957L14.3894 3.49451Z" fill="white"/>
</svg>
