<svg width="24" height="24" viewBox="0 0 24 24" fill="none" xmlns="http://www.w3.org/2000/svg">
<path d="M20.4375 16.9219C20.7661 16.9219 21.0509 16.6942 21.1233 16.3737L23.9827 3.71747C24.0298 3.50902 23.9795 3.29044 23.8461 3.12352C23.7127 2.95659 23.5106 2.85938 23.2969 2.85938C22.3279 2.85938 15.7672 2.85938 14.8125 2.85938C14.483 2.85938 14.1976 3.08827 14.1261 3.40997C13.9151 4.35952 11.3136 16.0662 11.3136 16.0662C11.2673 16.2744 11.3181 16.4924 11.4515 16.6587C11.585 16.8251 11.7867 16.9219 12 16.9219H15.5156V19.7344H5.67188V16.9219H9.1875C9.51703 16.9219 9.80241 16.693 9.87389 16.3713C10.1993 14.9067 12.2323 5.75831 12.6864 3.71503C12.7327 3.50686 12.6819 3.28889 12.5485 3.12253C12.415 2.95617 12.2133 2.85938 12 2.85938C11.0536 2.85938 4.53061 2.85938 3.5625 2.85938C3.23386 2.85938 2.94909 3.087 2.87667 3.40753L0.0172969 16.0638C-0.0297656 16.2722 0.0204844 16.4908 0.153891 16.6577C0.287297 16.8247 0.489422 16.9219 0.703125 16.9219H4.26562V19.7344H0.703125C0.314812 19.7344 0 20.0492 0 20.4375C0 20.8258 0.314812 21.1406 0.703125 21.1406H23.2969C23.6852 21.1406 24 20.8258 24 20.4375C24 20.0492 23.6852 19.7344 23.2969 19.7344H16.9219V16.9219H20.4375ZM8.62345 15.5156H5.84527L6.47025 12.7031H9.24844L8.62345 15.5156ZM8.34525 4.26562H11.1234L10.4985 7.07812H7.72027L8.34525 4.26562ZM10.186 8.48438L9.561 11.2969H6.78281L7.4078 8.48438H10.186ZM4.12448 4.26562H6.90473L6.27975 7.07812H3.48909L4.12448 4.26562ZM4.40475 15.5156H1.58283L2.21827 12.7031H5.02973L4.40475 15.5156ZM2.53594 11.2969L3.17137 8.48438H5.96723L5.34225 11.2969H2.53594ZM19.8755 15.5156H17.0953L17.7203 12.7031H20.5109L19.8755 15.5156ZM19.5953 4.26562H22.4172L21.7817 7.07812H18.9703L19.5953 4.26562ZM21.4641 8.48438L20.8286 11.2969H18.0328L18.6578 8.48438H21.4641ZM15.3765 4.26562H18.1547L17.5297 7.07812H14.7516L15.3765 4.26562ZM15.6547 15.5156H12.8766L13.5015 12.7031H16.2797L15.6547 15.5156ZM16.5922 11.2969H13.8141L14.439 8.48438H17.2172L16.5922 11.2969Z" fill="white"/>
</svg>
