<svg width="25" height="25" viewBox="0 0 25 25" fill="none" xmlns="http://www.w3.org/2000/svg">
<path d="M13.6903 9.18842C14.1393 9.40291 14.5601 9.69611 14.932 10.068C16.6893 11.8254 16.6893 14.6746 14.932 16.432L10.432 20.932C8.67462 22.6893 5.82538 22.6893 4.06802 20.932C2.31066 19.1746 2.31066 16.3254 4.06802 14.568L5.82499 12.811M19.175 12.189L20.932 10.432C22.6893 8.67462 22.6893 5.82538 20.932 4.06802C19.1746 2.31066 16.3254 2.31066 14.568 4.06802L10.068 8.56802C8.31066 10.3254 8.31066 13.1746 10.068 14.932C10.4399 15.3039 10.8607 15.5971 11.3097 15.8116" stroke="#0A3586" stroke-width="1.5" stroke-linecap="round" stroke-linejoin="round"/>
</svg>
