<svg width="25" height="25" viewBox="0 0 25 25" fill="none" xmlns="http://www.w3.org/2000/svg">
<path d="M2.75 16.25L7.90901 11.091C8.78769 10.2123 10.2123 10.2123 11.091 11.091L16.25 16.25M14.75 14.75L16.159 13.341C17.0377 12.4623 18.4623 12.4623 19.341 13.341L22.25 16.25M4.25 20H20.75C21.5784 20 22.25 19.3284 22.25 18.5V6.5C22.25 5.67157 21.5784 5 20.75 5H4.25C3.42157 5 2.75 5.67157 2.75 6.5V18.5C2.75 19.3284 3.42157 20 4.25 20ZM14.75 8.75H14.7575V8.7575H14.75V8.75ZM15.125 8.75C15.125 8.95711 14.9571 9.125 14.75 9.125C14.5429 9.125 14.375 8.95711 14.375 8.75C14.375 8.54289 14.5429 8.375 14.75 8.375C14.9571 8.375 15.125 8.54289 15.125 8.75Z" stroke="#0A3586" stroke-width="1.5" stroke-linecap="round" stroke-linejoin="round"/>
</svg>
