<svg width="24" height="25" viewBox="0 0 24 25" fill="none" xmlns="http://www.w3.org/2000/svg">
<g clip-path="url(#clip0_479_1182)">
<path d="M8.64323 8.52094C9.94498 7.38191 12.0555 7.38191 13.3573 8.52094C14.659 9.65997 14.659 11.5067 13.3573 12.6457C13.1307 12.844 12.8796 13.0077 12.6126 13.137C11.784 13.5379 11.0003 14.2462 11.0003 15.1667V16M21 13.5C21 19.0228 16.5228 23.5 11 23.5C5.47715 23.5 1 19.0228 1 13.5C1 7.97715 5.47715 3.5 11 3.5C16.5228 3.5 21 7.97715 21 13.5ZM11 19.3333H11.0083V19.3417H11V19.3333Z" stroke="#0A3586" stroke-width="1.66667" stroke-linecap="round" stroke-linejoin="round"/>
</g>
<defs>
<clipPath id="clip0_479_1182">
<rect width="24" height="24" fill="white" transform="translate(0 0.5)"/>
</clipPath>
</defs>
</svg>
