<svg width="25" height="24" viewBox="0 0 25 24" fill="none" xmlns="http://www.w3.org/2000/svg">
<circle cx="12.9263" cy="12" r="11" stroke="white" stroke-width="2"/>
<path d="M18.2597 17.3333L15.5597 14.6333M15.5597 14.6333C15.993 14.1999 16.3368 13.6854 16.5713 13.1192C16.8059 12.553 16.9266 11.9462 16.9266 11.3333C16.9266 10.7204 16.8059 10.1136 16.5713 9.54734C16.3368 8.98112 15.993 8.46665 15.5597 8.03329C15.1263 7.59992 14.6118 7.25616 14.0456 7.02163C13.4794 6.78709 12.8725 6.66638 12.2597 6.66638C11.6468 6.66638 11.0399 6.78709 10.4737 7.02163C9.90752 7.25616 9.39304 7.59992 8.95968 8.03329C8.08446 8.9085 7.59277 10.0955 7.59277 11.3333C7.59277 12.571 8.08446 13.7581 8.95968 14.6333C9.83489 15.5085 11.0219 16.0002 12.2597 16.0002C13.4974 16.0002 14.6845 15.5085 15.5597 14.6333Z" stroke="white" stroke-width="2" stroke-linecap="round" stroke-linejoin="round"/>
</svg>
