<svg width="24" height="25" viewBox="0 0 24 25" fill="none" xmlns="http://www.w3.org/2000/svg">
<path d="M3.375 20H20.625M3.375 20C2.75368 20 2.25 19.4963 2.25 18.875M3.375 20H10.875C11.4963 20 12 19.4963 12 18.875M2.25 18.875V6.125M2.25 18.875V17.375C2.25 16.7537 2.75368 16.25 3.375 16.25M21.75 18.875V6.125M21.75 18.875C21.75 19.4963 21.2463 20 20.625 20M21.75 18.875V17.375C21.75 16.7537 21.2463 16.25 20.625 16.25M20.625 20H13.125C12.5037 20 12 19.4963 12 18.875M21.75 6.125C21.75 5.50368 21.2463 5 20.625 5H3.375C2.75368 5 2.25 5.50368 2.25 6.125M21.75 6.125V7.625C21.75 8.24632 21.2463 8.75 20.625 8.75M2.25 6.125V7.625C2.25 8.24632 2.75368 8.75 3.375 8.75M3.375 8.75H20.625M3.375 8.75H10.875C11.4963 8.75 12 9.25368 12 9.875M3.375 8.75C2.75368 8.75 2.25 9.25368 2.25 9.875V11.375C2.25 11.9963 2.75368 12.5 3.375 12.5M20.625 8.75H13.125C12.5037 8.75 12 9.25368 12 9.875M20.625 8.75C21.2463 8.75 21.75 9.25368 21.75 9.875V11.375C21.75 11.9963 21.2463 12.5 20.625 12.5M3.375 12.5H10.875M3.375 12.5C2.75368 12.5 2.25 13.0037 2.25 13.625V15.125C2.25 15.7463 2.75368 16.25 3.375 16.25M12 11.375V9.875M12 11.375C12 11.9963 11.4963 12.5 10.875 12.5M12 11.375C12 11.9963 12.5037 12.5 13.125 12.5M10.875 12.5C11.4963 12.5 12 13.0037 12 13.625M13.125 12.5H20.625M13.125 12.5C12.5037 12.5 12 13.0037 12 13.625M20.625 12.5C21.2463 12.5 21.75 13.0037 21.75 13.625V15.125C21.75 15.7463 21.2463 16.25 20.625 16.25M3.375 16.25H10.875M12 15.125V13.625M12 15.125C12 15.7463 11.4963 16.25 10.875 16.25M12 15.125C12 15.7463 12.5037 16.25 13.125 16.25M10.875 16.25C11.4963 16.25 12 16.7537 12 17.375M12 18.875V17.375M12 17.375C12 16.7537 12.5037 16.25 13.125 16.25M13.125 16.25H20.625" stroke="#0A3586" stroke-width="1.5" stroke-linecap="round" stroke-linejoin="round"/>
</svg>
