<svg width="26" height="26" viewBox="0 0 26 26" fill="none" xmlns="http://www.w3.org/2000/svg">
<path d="M17.6042 11.875C20.7683 11.875 23.3333 14.44 23.3333 17.6042C23.3333 20.7683 20.7683 23.3333 17.6042 23.3333C14.44 23.3333 11.875 20.7683 11.875 17.6042C11.875 14.44 14.44 11.875 17.6042 11.875ZM17.6042 13.9575L17.5105 13.9659C17.2979 14.0045 17.1303 14.1722 17.0917 14.3847L17.0833 14.4784L17.083 17.0825L14.4767 17.0833L14.3831 17.0917C14.1705 17.1303 14.0029 17.2979 13.9643 17.5105L13.9559 17.6042L13.9643 17.6978C14.0029 17.9104 14.1705 18.078 14.3831 18.1166L14.4767 18.125L17.084 18.1242L17.0845 20.7328L17.0929 20.8264C17.1315 21.039 17.2991 21.2067 17.5117 21.2452L17.6053 21.2536L17.6989 21.2452C17.9115 21.2067 18.0792 21.039 18.1178 20.8264L18.1262 20.7328L18.1257 18.1242L20.7339 18.125L20.8275 18.1166C21.0401 18.078 21.2078 17.9104 21.2464 17.6978L21.2548 17.6042L21.2464 17.5105C21.2078 17.2979 21.0401 17.1303 20.8275 17.0917L20.7339 17.0833L18.1246 17.0825L18.125 14.4784L18.1166 14.3847C18.0725 14.1418 17.8599 13.9575 17.6042 13.9575ZM16.0417 2.5C16.5759 2.5 17.0162 2.90213 17.0763 3.42019L17.0833 3.54167V5.625C17.0833 6.2003 16.617 6.66667 16.0417 6.66667C15.5075 6.66667 15.0672 6.26454 15.007 5.74648L15 5.625H10.8333V19.1667L11.0147 19.1675C11.192 19.9177 11.4941 20.6196 11.8979 21.2502L7.70833 21.25C7.13304 21.25 6.66667 20.7836 6.66667 20.2083C6.66667 19.6741 7.06879 19.2338 7.58685 19.1737L7.70833 19.1667H8.75V5.625H4.58333C4.58333 6.1592 4.18121 6.59949 3.66315 6.65966L3.54167 6.66667C3.00746 6.66667 2.56718 6.26454 2.50701 5.74648L2.5 5.625V3.54167C2.5 2.96637 2.96637 2.5 3.54167 2.5C4.07587 2.5 4.51615 2.90213 4.57633 3.42019L4.58333 3.54167H15C15 2.96637 15.4664 2.5 16.0417 2.5Z" fill="#0A3586"/>
</svg>
