<svg width="24" height="25" viewBox="0 0 24 25" fill="none" xmlns="http://www.w3.org/2000/svg">
<path d="M14.7404 9.56323L14.3942 18.5632M9.60577 18.5632L9.25962 9.56323M19.2276 6.3538C19.5696 6.40545 19.9104 6.4607 20.25 6.51952M19.2276 6.3538L18.1598 20.2358C18.0696 21.408 17.0921 22.3132 15.9164 22.3132H8.08357C6.90786 22.3132 5.93037 21.408 5.8402 20.2358L4.77235 6.3538M19.2276 6.3538C18.0812 6.18067 16.9215 6.04808 15.75 5.95756M3.75 6.51952C4.08957 6.4607 4.43037 6.40545 4.77235 6.3538M4.77235 6.3538C5.91878 6.18067 7.07849 6.04808 8.25 5.95756M15.75 5.95756V5.04142C15.75 3.86206 14.8393 2.87746 13.6606 2.83976C13.1092 2.82212 12.5556 2.81323 12 2.81323C11.4444 2.81323 10.8908 2.82212 10.3394 2.83976C9.16065 2.87746 8.25 3.86206 8.25 5.04142V5.95756M15.75 5.95756C14.5126 5.86193 13.262 5.81323 12 5.81323C10.738 5.81323 9.48744 5.86193 8.25 5.95756" stroke="#141262" stroke-width="1.5" stroke-linecap="round" stroke-linejoin="round"/>
</svg>
