<svg width="25" height="24" viewBox="0 0 25 24" fill="none" xmlns="http://www.w3.org/2000/svg">
<circle cx="12.9263" cy="12" r="11" stroke="white" stroke-width="2"/>
<path d="M12.9263 6C9.61248 6 6.92627 8.68621 6.92627 12C6.92627 15.3138 9.61248 18 12.9263 18C16.2401 18 18.9263 15.3138 18.9263 12C18.9263 8.68621 16.2401 6 12.9263 6ZM16.7972 11.2137V11.3814C16.7972 11.5234 16.7169 11.6533 16.5899 11.7167L16.2176 11.903C16.1584 11.9326 16.0925 11.946 16.0265 11.9419C15.9605 11.9377 15.8968 11.9162 15.8418 11.8795L15.4013 11.5858C15.3537 11.5542 15.2996 11.5338 15.243 11.5262C15.1864 11.5186 15.1288 11.524 15.0747 11.542L15.0105 11.5633C14.7759 11.6415 14.6801 11.9211 14.8172 12.127L15.1376 12.6075C15.207 12.7118 15.3241 12.7744 15.4494 12.7744H15.648C15.8551 12.7744 16.023 12.9423 16.023 13.1494V13.4238C16.023 13.5048 15.9967 13.584 15.948 13.6488L15.4947 14.2531C15.4603 14.2991 15.4368 14.3523 15.4262 14.4087L15.3222 14.961C15.3072 15.0406 15.2668 15.1132 15.207 15.1681C14.9777 15.3781 14.7746 15.615 14.6022 15.8736L14.2869 16.3466C14.2256 16.4386 14.1425 16.514 14.0451 16.5662C13.9476 16.6183 13.8388 16.6456 13.7283 16.6456C13.474 16.6456 13.2415 16.5019 13.1278 16.2745C12.9953 16.0094 12.9263 15.7171 12.9263 15.4207V14.6976C12.9263 14.4905 12.7584 14.3226 12.5513 14.3226H11.9251C11.5746 14.3226 11.2385 14.1832 10.9905 13.9355C10.7427 13.6876 10.6035 13.3514 10.6034 13.0009V12.6607C10.6034 12.2448 10.7994 11.8531 11.1321 11.6035L11.7993 11.1029C12.0281 10.9313 12.3064 10.8385 12.5924 10.8385H12.6139C12.8191 10.8385 13.0216 10.8861 13.205 10.9781L13.5611 11.1561C13.6501 11.2006 13.753 11.2079 13.8473 11.1765L14.9919 10.7949C15.1451 10.7439 15.2484 10.6006 15.2484 10.4393C15.2484 10.2322 15.0805 10.0643 14.8734 10.0643H14.6293C14.5298 10.0643 14.4345 10.0248 14.3641 9.95444L14.1967 9.78702C14.1619 9.75219 14.1205 9.72456 14.075 9.70571C14.0295 9.68687 13.9808 9.67717 13.9315 9.67718H11.7529C11.5458 9.67718 11.3779 9.50927 11.3779 9.30218V9.19573C11.3779 9.02371 11.495 8.87371 11.6619 8.83185L12.0115 8.74452C12.102 8.72177 12.1809 8.66637 12.2326 8.58871L12.4281 8.29573C12.4976 8.19145 12.6147 8.12879 12.74 8.12879H13.3257C13.5328 8.12879 13.7007 7.96089 13.7007 7.75379V7.22879C15.6173 7.53944 17.1568 8.97629 17.6181 10.8387H17.1722C16.9651 10.8387 16.7972 11.0066 16.7972 11.2137Z" fill="white"/>
</svg>
